<svg xmlns="http://www.w3.org/2000/svg" viewBox="0 0 169 169"><defs><style>.cls-1{fill:#4caf50;}.cls-2{stroke:#000;stroke-miterlimit:10;stroke-width:13px;}</style></defs><g id="Capa_2" data-name="Capa 2"><g id="Capa_1-2" data-name="Capa 1"><circle class="cls-1" cx="84.5" cy="84.5" r="84.5"/><path class="cls-1" d="M40.94,97.32s5.71,40.24,45,40.36,42-40.36,42-40.36"/><path d="M86.15,144.18H86c-23.27-.07-36.1-12.69-42.75-23.26A63.75,63.75,0,0,1,34.5,98.23l12.87-1.84c.21,1.41,5.53,34.69,38.63,34.79h.15c32.49,0,35.26-32.91,35.37-34.31l13,.88a60.76,60.76,0,0,1-7.06,22.94C121.5,131.42,109.52,144.18,86.15,144.18Z"/><circle class="cls-2" cx="48.5" cy="54.75" r="8"/><circle class="cls-2" cx="119.5" cy="54.75" r="8"/></g></g></svg>