<svg id="Capa_1" data-name="Capa 1" xmlns="http://www.w3.org/2000/svg" viewBox="0 0 359.87 94.1"><defs><style>.cls-1,.cls-2{fill:#0f0f0f;}.cls-2{stroke:#0f0f0f;stroke-miterlimit:10;stroke-width:0.12px;}.cls-3{fill:#29aae1;}</style></defs><path class="cls-1" d="M.08.69A.69.69,0,0,1,.77,0H30.66Q47.28,0,53.73,14.53a23.9,23.9,0,0,1,1.56,8.69q0,9.69-7.55,16.93a24.61,24.61,0,0,1-11.37,5.56H36.3a34.69,34.69,0,0,1-5.22.34l-19.3.22a.69.69,0,0,0-.68.69v7.25a.69.69,0,0,1-.69.69H.69A.69.69,0,0,1,0,54.22V36.11a.69.69,0,0,1,.69-.69H30.2c3.94,0,6.82-.73,8.66-2.21a12.57,12.57,0,0,0,5-7.24,12.1,12.1,0,0,0,.3-2.33V22.5q0-4.29-3.65-8.35l-.09-.08A12.61,12.61,0,0,0,32,10.71H.77A.68.68,0,0,1,.08,10Z"/><rect class="cls-1" x="65.64" y="22.74" width="28.71" height="10.56" rx="0.69"/><rect class="cls-1" x="65.64" y="1.24" width="48.28" height="10.56" rx="0.69"/><rect class="cls-1" x="65.64" y="44.23" width="48.28" height="10.56" rx="0.69"/><rect class="cls-1" x="311.59" y="22.15" width="28.71" height="10.56" rx="0.69"/><rect class="cls-1" x="311.59" y="1.24" width="48.28" height="10.56" rx="0.69"/><rect class="cls-1" x="311.59" y="44.23" width="48.28" height="10.56" rx="0.69"/><path class="cls-1" d="M149.51,0h.38q12.66,0,21.62,10.37a27.78,27.78,0,0,1,5.8,16.93v.38q0,12.66-10.6,21.51a27.76,27.76,0,0,1-16.9,5.72h-.38q-12.59,0-21.54-10.3a32.2,32.2,0,0,1-4.39-8,28.93,28.93,0,0,1-1.48-9v-.39Q122,14.8,132.27,6q6.94-5,12.66-5.57A22.64,22.64,0,0,1,149.51,0ZM133,27.38A17,17,0,0,0,138.6,40a16,16,0,0,0,10.49,4.27h1.07a16.34,16.34,0,0,0,9-3,17,17,0,0,0,6.4-8.85,18.52,18.52,0,0,0,.76-4.84,16.88,16.88,0,0,0-5.45-12.39,16.51,16.51,0,0,0-11.21-4.54q-7.12,0-12.66,6a16.66,16.66,0,0,0-2.93,5.18A16.59,16.59,0,0,0,133,27.38Z"/><path class="cls-1" d="M183.1.69a.69.69,0,0,1,.69-.69h29.89q16.62,0,23.07,14.53a23.9,23.9,0,0,1,1.56,8.69q0,9.69-7.55,16.93a24.62,24.62,0,0,1-11.36,5.56h-.07a34.84,34.84,0,0,1-5.23.34l-19.3.22a.69.69,0,0,0-.68.69v7.25a.69.69,0,0,1-.69.69h-9.72a.69.69,0,0,1-.69-.69V36.11a.69.69,0,0,1,.69-.69h29.51c3.94,0,6.83-.73,8.66-2.21a12.48,12.48,0,0,0,5-7.24,11.49,11.49,0,0,0,.31-2.33V22.5q0-4.29-3.66-8.35l-.09-.08A12.56,12.56,0,0,0,215,10.71H183.79a.68.68,0,0,1-.69-.68Z"/><path class="cls-1" d="M244.72,0h9.68a.69.69,0,0,1,.69.69V26q0,10.91,8.35,15.86,3.66,2.4,9.72,2.4h25.47a.69.69,0,0,1,.69.69v9.3a.69.69,0,0,1-.69.69H273.55q-10.46,0-16.74-4.39a25.86,25.86,0,0,1-5.24-4.24l0-.06A28.17,28.17,0,0,1,245.41,36Q244,32,244,24.71V.69A.69.69,0,0,1,244.72,0Z"/><path class="cls-2" d="M.44,93.76v-18H1.62v18Z"/><path class="cls-2" d="M22.55,93.76v-18h1.28l11.6,15.88V75.8h1.18v18h-1L23.73,77.54V93.76Z"/><path class="cls-2" d="M62.52,93.76V76.9H55.85V75.8H70.37v1.1H63.7V93.76Z"/><path class="cls-2" d="M89.62,93.76v-18H102v1.1H90.8v7.24h7.33v1.1H90.8v7.42h11.34v1.1Z"/><path class="cls-2" d="M121.74,93.76v-18h1.18V92.66H134v1.1Z"/><path class="cls-2" d="M153.63,93.76v-18h1.18V92.66h11.08v1.1Z"/><path class="cls-2" d="M185.52,93.76v-18h1.18v18Z"/><path class="cls-2" d="M215.92,94a9,9,0,0,1-3.62-.72,9.18,9.18,0,0,1-2.92-2,8.93,8.93,0,0,1-1.95-3,9.38,9.38,0,0,1-.69-3.6,9.25,9.25,0,0,1,.7-3.61,9.48,9.48,0,0,1,1.95-3,9.14,9.14,0,0,1,6.56-2.7,10.19,10.19,0,0,1,3.78.7,9,9,0,0,1,3.14,2.07l-.77.9a7.42,7.42,0,0,0-2.75-1.89,9,9,0,0,0-3.4-.68A7.86,7.86,0,0,0,210.24,79a8.13,8.13,0,0,0-1.7,2.6,8.38,8.38,0,0,0,1.69,9,7.79,7.79,0,0,0,2.52,1.74,7.87,7.87,0,0,0,3.17.63,7.18,7.18,0,0,0,6.32-3.5,7.73,7.73,0,0,0,1.1-3.66h-6.91v-1.1h8.06v.64a8.91,8.91,0,0,1-.65,3.4A8.8,8.8,0,0,1,222,91.49a8.47,8.47,0,0,1-2.72,1.87A8.19,8.19,0,0,1,215.92,94Z"/><path class="cls-2" d="M244.48,93.76v-18h12.41v1.1H245.66v7.24H253v1.1h-7.33v7.42H257v1.1Z"/><path class="cls-2" d="M276.6,93.76v-18h1.28l11.6,15.88V75.8h1.18v18h-1L277.78,77.54V93.76Z"/><path class="cls-2" d="M319.9,94a9.12,9.12,0,0,1-3.63-.72,9,9,0,0,1-2.92-2,9.44,9.44,0,0,1-2-10.16,9.48,9.48,0,0,1,2-3,9.1,9.1,0,0,1,6.55-2.7,10.48,10.48,0,0,1,2.58.31,9.34,9.34,0,0,1,2.35.92,8.48,8.48,0,0,1,2,1.54l-.77.9a7.38,7.38,0,0,0-2.76-1.89,8.89,8.89,0,0,0-3.4-.68A7.85,7.85,0,0,0,314.2,79a8,8,0,0,0-1.7,2.6,8.78,8.78,0,0,0,0,6.38,8,8,0,0,0,1.7,2.6,7.85,7.85,0,0,0,5.7,2.37,8.72,8.72,0,0,0,3.4-.69,7.85,7.85,0,0,0,2.76-1.88l.77.9a8.48,8.48,0,0,1-2,1.54,9.34,9.34,0,0,1-2.35.92A10.48,10.48,0,0,1,319.9,94Z"/><path class="cls-2" d="M346.84,93.76v-18h12.42v1.1H348v7.24h7.34v1.1H348v7.42h11.34v1.1Z"/><rect class="cls-3" y="17.92" width="10.86" height="10.86" rx="0.69"/></svg>